<svg width="1920" height="1080" viewBox="0 0 1920 1080" fill="none" xmlns="http://www.w3.org/2000/svg">
<path d="M990.807 730.572L935.531 832.659L632.611 247.906H741.049L990.807 730.572Z" stroke="#1BA098" stroke-width="5"/>
<path d="M1111.13 835.5L956.648 543.123H1052.59C1082.02 543.123 1104.12 529.017 1118.78 508.692C1133.4 488.433 1140.64 461.994 1140.64 437C1140.64 417.325 1128.79 393.282 1112.18 374.279C1095.58 355.302 1073.56 340.592 1052.59 340.592H851.696L803.948 247.906H1052.59C1081.77 247.906 1126.12 264.923 1163.84 297.279C1201.47 329.567 1232.19 376.859 1234.62 437.101C1239.47 557.706 1153.23 609.695 1108.7 627.35L1106.12 628.376L1107.41 630.838L1215.08 835.5H1111.13Z" stroke="#DEB992" stroke-width="5"/>
<path d="M1212.01 269.012C1198.1 257.725 1183.3 249.427 1170.69 244.5H1288.01L1257.52 334.178C1249.64 306.862 1231.55 284.87 1212.01 269.012Z" stroke="#1BA098" stroke-width="5"/>
</svg>
